<?xml version="1.0" encoding="UTF-8"?>
<svg width="32" height="32" version="1.1" viewBox="0 0 8.4666659 8.4666659" xmlns="http://www.w3.org/2000/svg" xmlns:cc="http://creativecommons.org/ns#" xmlns:dc="http://purl.org/dc/elements/1.1/" xmlns:rdf="http://www.w3.org/1999/02/22-rdf-syntax-ns#">
<metadata>
<rdf:RDF>
<cc:Work rdf:about="">
<dc:format>image/svg+xml</dc:format>
<dc:type rdf:resource="http://purl.org/dc/dcmitype/StillImage"/>
<dc:title/>
</cc:Work>
</rdf:RDF>
</metadata>
<g transform="translate(0 -288.53)" fill="none" stroke="#000" stroke-width=".26458px">
<path d="m3.6853 295.96v-1.9844s-0.74833-0.43688-0.99219-0.77958c-0.28009-0.39363-0.48221-0.88715-0.47247-1.3702 0.010911-0.54095 0.22048-1.1172 0.59059-1.5119 0.35665-0.38032 0.89634-0.64335 1.4174-0.66145 0.54806-0.019 1.1266 0.22519 1.5355 0.59058 0.33092 0.29569 0.51822 0.74791 0.61421 1.1812 0.078428 0.35399 0.079638 0.74704-0.047247 1.0867-0.13729 0.3675-0.44177 0.65773-0.73233 0.92132-0.23619 0.21426-0.8032 0.51971-0.8032 0.51971v2.008" stroke='white' />
<path d="m3.6853 295.93c6.576e-4 0.22307-0.058675 0.54556 0.58173 0.54039 0.43573-4e-3 0.52882-0.18221 0.52858-0.54039" stroke='white' />
</g>
</svg>
